<?xml version="1.0" encoding="utf-8"?>
<!-- Generator: Adobe Illustrator 25.1.0, SVG Export Plug-In . SVG Version: 6.00 Build 0)  -->
<svg version="1.1" id="Capa_1" xmlns="http://www.w3.org/2000/svg" xmlns:xlink="http://www.w3.org/1999/xlink" x="0px" y="0px"
	 viewBox="0 0 512 512" enable-background="new 0 0 512 512" xml:space="preserve">
<linearGradient id="SVGID_1_" gradientUnits="userSpaceOnUse" x1="6" y1="258" x2="506" y2="258">
	<stop  offset="0" style="stop-color:#CB483C"/>
	<stop  offset="1" style="stop-color:#B93C59"/>
</linearGradient>
<rect fill="url(#SVGID_1_)" x="0" y="0" width="512" height="512"/>
<g>
	<g>
		<g>
			<path fill="#FFFFFF" d="M150.6,356c-3.3,0-6,2.7-6,6s2.7,6,6,6c3.3,0,6-2.7,6-6S153.9,356,150.6,356z"/>
			<path fill="#FFFFFF" d="M306.6,356h-48c-3.3,0-6,2.7-6,6s2.7,6,6,6h48c3.3,0,6-2.7,6-6S309.9,356,306.6,356z"/>
			<path fill="#FFFFFF" d="M346.7,176.3c-8.3-41.6-45.4-72.3-88.2-72.3c-49.6,0-90,40.4-90,90c0,2,0.1,4.1,0.3,6.3
				c-27.1,2.9-48.3,25.9-48.3,53.7c0,4.8,0.8,9.7,2.4,15.2c0.9,3.2,4.3,5,7.5,4.1c3.2-0.9,5-4.3,4.1-7.5c-1.3-4.5-1.9-8.2-1.9-11.8
				c0-23.2,18.8-42,41.6-42c2,0.3,4.6-0.4,5.9-2c1.1-1.3,1.7-3,1.4-4.8c-0.6-4.3-0.9-7.9-0.9-11.2c0-43,35-78,78-78
				c38.5,0,71.7,28.8,77.1,66.9c0.4,3,3.9,5.1,6.9,5.1c29.8,0,54,24.2,54,54c0,25.6-18.2,47.9-43.3,52.9c-3.3,0.7-5.4,3.8-4.7,7.1
				c0.6,2.8,3.1,4.8,5.9,4.8c0.4,0,0.8,0,1.2-0.1c30.7-6.2,52.9-33.4,52.9-64.7C408.6,207.3,381.7,178.8,346.7,176.3z"/>
			<path fill="#FFFFFF" d="M150.6,308c-3.3,0-6,2.7-6,6s2.7,6,6,6c3.3,0,6-2.7,6-6C156.6,310.7,153.9,308,150.6,308z"/>
			<path fill="#FFFFFF" d="M318.6,284h-180c-9.9,0-18,8.1-18,18v24c0,4.6,1.8,8.8,4.7,12c-2.9,3.2-4.7,7.4-4.7,12v24
				c0,9.9,8.1,18,18,18h180c9.9,0,18-8.1,18-18v-24c0-4.6-1.8-8.8-4.7-12c2.9-3.2,4.7-7.4,4.7-12v-24
				C336.6,292.1,328.5,284,318.6,284z M324.6,374c0,3.3-2.7,6-6,6h-180c-3.3,0-6-2.7-6-6v-24c0-3.3,2.7-6,6-6h180c3.3,0,6,2.7,6,6
				V374z M324.6,326c0,3.3-2.7,6-6,6h-180c-3.3,0-6-2.7-6-6v-24c0-3.3,2.7-6,6-6h180c3.3,0,6,2.7,6,6V326z"/>
			<path fill="#FFFFFF" d="M306.6,308h-48c-3.3,0-6,2.7-6,6s2.7,6,6,6h48c3.3,0,6-2.7,6-6C312.6,310.7,309.9,308,306.6,308z"/>
		</g>
	</g>
</g>
</svg>
